<?xml version="1.0" encoding="UTF-8" standalone="no"?>
<!-- Created with Inkscape (http://www.inkscape.org/) -->

<svg
   width="48"
   height="48"
   viewBox="0 0 48 48"
   version="1.1"
   id="svg1"
   inkscape:version="1.3.2 (091e20e, 2023-11-25, custom)"
   sodipodi:docname="logo.svg"
   xml:space="preserve"
   xmlns:inkscape="http://www.inkscape.org/namespaces/inkscape"
   xmlns:sodipodi="http://sodipodi.sourceforge.net/DTD/sodipodi-0.dtd"
   xmlns="http://www.w3.org/2000/svg"
   xmlns:svg="http://www.w3.org/2000/svg"><sodipodi:namedview
     id="namedview1"
     pagecolor="#ffffff"
     bordercolor="#000000"
     borderopacity="0.25"
     inkscape:showpageshadow="2"
     inkscape:pageopacity="0.0"
     inkscape:pagecheckerboard="0"
     inkscape:deskcolor="#d1d1d1"
     inkscape:document-units="px"
     inkscape:zoom="16.1875"
     inkscape:cx="23.969112"
     inkscape:cy="23.938224"
     inkscape:window-width="1920"
     inkscape:window-height="991"
     inkscape:window-x="-9"
     inkscape:window-y="-9"
     inkscape:window-maximized="1"
     inkscape:current-layer="layer1" /><defs
     id="defs1"><inkscape:path-effect
       effect="fillet_chamfer"
       id="path-effect9"
       is_visible="true"
       lpeversion="1"
       nodesatellites_param="F,0,0,1,0,0,0,1 @ F,0,0,1,0,0,0,1 @ F,0,0,1,0,0,0,1 @ F,0,0,1,0,0.50877886,0,1 @ F,0,0,1,0,0,0,1 @ F,0,0,1,0,0,0,1 @ F,0,0,1,0,0,0,1 @ F,0,0,1,0,0,0,1 @ F,0,0,1,0,0.84270657,0,1 @ F,0,0,1,0,0.72318771,0,1 @ F,0,0,1,0,0,0,1 @ F,0,0,1,0,0,0,1 @ F,0,0,1,0,0,0,1 | F,0,0,1,0,0,0,1 @ F,0,0,1,0,0,0,1 @ F,0,0,1,0,0,0,1 @ F,0,0,1,0,0,0,1 @ F,0,0,1,0,0,0,1 @ F,0,0,1,0,0,0,1 @ F,0,0,1,0,0,0,1 @ F,0,0,1,0,0,0,1 @ F,0,0,1,0,0,0,1 | F,0,0,1,0,0,0,1 @ F,0,0,1,0,0,0,1 @ F,0,0,1,0,0,0,1 @ F,0,0,1,0,0,0,1 @ F,0,0,1,0,0,0,1 @ F,0,0,1,0,0,0,1 @ F,0,0,1,0,0,0,1 @ F,0,0,1,0,0,0,1 | F,0,0,1,0,0,0,1 @ F,0,0,1,0,0,0,1 @ F,0,0,1,0,0,0,1 @ F,0,0,1,0,0,0,1 @ F,0,0,1,0,0,0,1 @ F,0,0,1,0,0,0,1 @ F,0,0,1,0,0,0,1 @ F,0,0,1,0,0,0,1 @ F,0,0,1,0,0,0,1 @ F,0,0,1,0,0,0,1 | F,0,0,1,0,0,0,1 @ F,0,0,1,0,0,0,1 @ F,0,0,1,0,0,0,1 @ F,0,0,1,0,0,0,1 @ F,0,0,1,0,0,0,1 @ F,0,0,1,0,0,0,1 @ F,0,0,1,0,0,0,1 @ F,0,0,1,0,0,0,1 @ F,0,0,1,0,0,0,1 | F,0,0,1,0,0,0,1 @ F,0,0,1,0,0,0,1 @ F,0,0,1,0,0,0,1 @ F,0,0,1,0,0,0,1 @ F,0,0,1,0,0,0,1 @ F,0,0,1,0,0,0,1 @ F,0,0,1,0,0,0,1 @ F,0,0,1,0,0,0,1 | F,0,0,1,0,0,0,1 @ F,0,0,1,0,0,0,1 @ F,0,0,1,0,0,0,1 @ F,0,0,1,0,0,0,1 @ F,0,0,1,0,0,0,1 @ F,0,0,1,0,0,0,1 @ F,0,0,1,0,0,0,1 @ F,0,0,1,0,0,0,1 | F,0,0,1,0,0,0,1 @ F,0,0,1,0,0,0,1 @ F,0,0,1,0,0,0,1 @ F,0,0,1,0,0,0,1 @ F,0,0,1,0,0,0,1 @ F,0,0,1,0,0,0,1 @ F,0,0,1,0,0,0,1 @ F,0,0,1,0,0,0,1 @ F,0,0,1,0,0,0,1 @ F,0,0,1,0,0,0,1"
       radius="0"
       unit="px"
       method="auto"
       mode="F"
       chamfer_steps="1"
       flexible="false"
       use_knot_distance="true"
       apply_no_radius="true"
       apply_with_radius="true"
       only_selected="false"
       hide_knots="false" /><inkscape:path-effect
       effect="bspline"
       id="path-effect4"
       is_visible="true"
       lpeversion="1.3"
       weight="33.333333"
       steps="2"
       helper_size="0"
       apply_no_weight="true"
       apply_with_weight="true"
       only_selected="false"
       uniform="false" /><inkscape:path-effect
       effect="bspline"
       id="path-effect2"
       is_visible="true"
       lpeversion="1.3"
       weight="33.333333"
       steps="2"
       helper_size="0"
       apply_no_weight="true"
       apply_with_weight="true"
       only_selected="false"
       uniform="false" /></defs><g
     inkscape:label="Layer 1"
     inkscape:groupmode="layer"
     id="layer1"
     style="display:inline"><path
       id="path1"
       style="fill:#ffffff;fill-opacity:1;stroke:none;stroke-width:0.545507;stroke-dasharray:none"
       d="m 7.2196802,15.786873 c -0.7211802,2.434179 -0.6705119,4.957971 -0.7671906,7.47559 -1.539644,0.11837 -2.1746182,1.18769 -2.3521206,2.610418 -0.074925,1.61789 0.2306805,3.394957 3.989097,3.20246 0.2805928,-0.01437 0.7077601,-0.182843 0.7205811,-0.429625 0.010496,-0.202032 0.010293,-0.510875 0.00957,-0.985045 C 8.8103772,23.647146 8.5799255,19.689241 9.7067956,15.796253 12.272518,8.0142947 18.004306,6.2495742 21.701242,5.5753345 28.052637,4.7111609 35.673406,7.4743132 38.33298,15.904712 c 1.107238,3.972777 0.819484,8.173246 0.819951,12.274596 5.3e-5,0.464912 0.380651,0.879744 0.845867,0.890247 0.824312,0.01861 1.619247,-0.06181 2.388313,-0.342773 0.374713,-0.136896 0.887588,-0.532213 1.08281,-0.879609 1.019656,-1.814472 0.238563,-4.550159 -2.026352,-4.620989 -0.07343,-3.002133 -0.192081,-5.965352 -1.148255,-8.838378 C 39.212554,11.464186 35.512973,4.0228949 25.680096,3.0953257 19.825135,2.5430043 10.22295,4.8986725 7.2196802,15.786873 Z M 21.520657,10.246431 c -0.01017,7.591279 -0.05082,14.994974 -0.06099,22.586251 -2.026691,-0.08395 -8.532513,0.294553 -9.521978,5.970024 -0.670659,3.846697 2.055195,7.259708 8.260266,6.076791 5.476347,-1.086551 6.000627,-5.793256 5.993768,-9.164767 -0.01085,-5.332929 -0.150485,-15.999697 -0.150485,-15.999697 4.292574,0.580298 8.82654,5.987328 7.566467,10.335397 1.568972,-0.98185 2.325952,-2.603564 2.425837,-4.996144 0.307485,-7.365321 -9.492048,-9.896154 -14.512887,-14.80785 z m -7.01266,7.235381 c -0.179866,0 -0.325048,0.145181 -0.325048,0.325048 v 10.937343 c 0,0.179866 0.145182,0.325048 0.325048,0.325048 h 1.276125 c 0.179866,0 0.325051,-0.145182 0.325051,-0.325048 V 17.80686 c 0,-0.179867 -0.145185,-0.325048 -0.325051,-0.325048 z m 3.106038,2.112827 c -0.09421,0.01918 -0.168546,0.104626 -0.168546,0.20466 v 6.952464 c 0,0.114325 0.09636,0.20466 0.210682,0.20466 h 1.444668 c 0.114322,0 0.204661,-0.09033 0.204661,-0.20466 v -6.952464 c 0,-0.114325 -0.09034,-0.20466 -0.204661,-0.20466 h -1.444668 c -0.01429,0 -0.02868,-0.0027 -0.04214,0 z m -6.386638,0.782528 c -0.174799,0.01764 -0.31301,0.163504 -0.31301,0.343108 v 5.0443 c 0,0.191574 0.151531,0.343108 0.343109,0.343108 h 1.240007 c 0.191575,0 0.343108,-0.151534 0.343108,-0.343108 v -5.0443 c 0,-0.191578 -0.151533,-0.343108 -0.343108,-0.343108 h -1.240007 c -0.01197,0 -0.01845,-0.0012 -0.0301,0 z m 20.664771,11.135981 c -0.179866,0 -0.325048,0.139163 -0.325048,0.319032 v 10.943359 c 0,0.179866 0.145182,0.319032 0.325048,0.319032 h 1.276125 c 0.179866,0 0.325051,-0.139166 0.325051,-0.319032 V 31.83218 c 0,-0.179869 -0.145185,-0.319032 -0.325051,-0.319032 z m 3.051863,2.106808 c -0.114325,0 -0.210682,0.09635 -0.210682,0.21068 v 6.946444 c 0,0.114325 0.09636,0.210683 0.210682,0.210683 h 1.444668 c 0.114322,0 0.204661,-0.09636 0.204661,-0.210683 v -6.946444 c 0,-0.114325 -0.09034,-0.21068 -0.204661,-0.21068 z m -6.236151,0.818645 c -0.1748,0.01765 -0.31301,0.163505 -0.31301,0.343109 v 5.044299 c 0,0.191575 0.15153,0.343109 0.343108,0.343109 h 1.240008 c 0.191574,0 0.343108,-0.151534 0.343108,-0.343109 V 34.78171 c 0,-0.191578 -0.151534,-0.343109 -0.343108,-0.343109 h -1.240008 c -0.01197,0 -0.01844,-0.0012 -0.0301,0 z"
       sodipodi:nodetypes="scccssscccccssccsssccsccssssssssscsssssssscccsssssssscsssssssssssssssssssssssssssss"
       inkscape:path-effect="#path-effect9"
       inkscape:original-d="m 7.2196802,15.786873 c -0.7211802,2.434179 -0.6705119,4.957971 -0.7671906,7.47559 -1.539644,0.11837 -2.1746182,1.18769 -2.3521206,2.610418 -0.078167,1.687884 0.2578354,3.549016 4.4965305,3.166245 0.2227331,-0.02003 0.224721,-0.06421 0.2227177,-1.378455 C 8.8103772,23.647146 8.5799255,19.689241 9.7067956,15.796253 12.272518,8.0142947 18.004306,6.2495742 21.701242,5.5753345 28.052637,4.7111609 35.673406,7.4743132 38.33298,15.904712 c 1.183125,4.24506 0.773487,8.750093 0.824651,13.11638 1.371814,0.119732 2.662988,0.06817 3.888565,-0.589911 1.603414,-1.734005 0.922762,-5.126021 -1.602627,-5.204997 -0.07343,-3.002133 -0.192081,-5.965352 -1.148255,-8.838378 C 39.212554,11.464186 35.512973,4.0228949 25.680096,3.0953257 19.825135,2.5430043 10.22295,4.8986725 7.2196802,15.786873 Z M 21.520657,10.246431 c -0.01017,7.591279 -0.05082,14.994974 -0.06099,22.586251 -2.026691,-0.08395 -8.532513,0.294553 -9.521978,5.970024 -0.670659,3.846697 2.055195,7.259708 8.260266,6.076791 5.476347,-1.086551 6.000627,-5.793256 5.993768,-9.164767 -0.01085,-5.332929 -0.150485,-15.999697 -0.150485,-15.999697 4.292574,0.580298 8.82654,5.987328 7.566467,10.335397 1.568972,-0.98185 2.325952,-2.603564 2.425837,-4.996144 0.307485,-7.365321 -9.492048,-9.896154 -14.512887,-14.80785 z m -7.01266,7.235381 c -0.179866,0 -0.325048,0.145181 -0.325048,0.325048 v 10.937343 c 0,0.179866 0.145182,0.325048 0.325048,0.325048 h 1.276125 c 0.179866,0 0.325051,-0.145182 0.325051,-0.325048 V 17.80686 c 0,-0.179867 -0.145185,-0.325048 -0.325051,-0.325048 z m 3.106038,2.112827 c -0.09421,0.01918 -0.168546,0.104626 -0.168546,0.20466 v 6.952464 c 0,0.114325 0.09636,0.20466 0.210682,0.20466 h 1.444668 c 0.114322,0 0.204661,-0.09033 0.204661,-0.20466 v -6.952464 c 0,-0.114325 -0.09034,-0.20466 -0.204661,-0.20466 h -1.444668 c -0.01429,0 -0.02868,-0.0027 -0.04214,0 z m -6.386638,0.782528 c -0.174799,0.01764 -0.31301,0.163504 -0.31301,0.343108 v 5.0443 c 0,0.191574 0.151531,0.343108 0.343109,0.343108 h 1.240007 c 0.191575,0 0.343108,-0.151534 0.343108,-0.343108 v -5.0443 c 0,-0.191578 -0.151533,-0.343108 -0.343108,-0.343108 h -1.240007 c -0.01197,0 -0.01845,-0.0012 -0.0301,0 z m 20.664771,11.135981 c -0.179866,0 -0.325048,0.139163 -0.325048,0.319032 v 10.943359 c 0,0.179866 0.145182,0.319032 0.325048,0.319032 h 1.276125 c 0.179866,0 0.325051,-0.139166 0.325051,-0.319032 V 31.83218 c 0,-0.179869 -0.145185,-0.319032 -0.325051,-0.319032 z m 3.051863,2.106808 c -0.114325,0 -0.210682,0.09635 -0.210682,0.21068 v 6.946444 c 0,0.114325 0.09636,0.210683 0.210682,0.210683 h 1.444668 c 0.114322,0 0.204661,-0.09636 0.204661,-0.210683 v -6.946444 c 0,-0.114325 -0.09034,-0.21068 -0.204661,-0.21068 z m -6.236151,0.818645 c -0.1748,0.01765 -0.31301,0.163505 -0.31301,0.343109 v 5.044299 c 0,0.191575 0.15153,0.343109 0.343108,0.343109 h 1.240008 c 0.191574,0 0.343108,-0.151534 0.343108,-0.343109 V 34.78171 c 0,-0.191578 -0.151534,-0.343109 -0.343108,-0.343109 h -1.240008 c -0.01197,0 -0.01844,-0.0012 -0.0301,0 z"
       transform="matrix(1.126217,0,0,1.126217,-3.0301382,-3.1097697)" /></g></svg>
