<?xml version="1.0" encoding="UTF-8" standalone="no"?>
<svg
   height="24px"
   viewBox="0 -960 960 960"
   width="24px"
   fill="#e8eaed"
   version="1.1"
   id="svg1"
   sodipodi:docname="search.svg"
   inkscape:version="1.3.2 (091e20e, 2023-11-25, custom)"
   xmlns:inkscape="http://www.inkscape.org/namespaces/inkscape"
   xmlns:sodipodi="http://sodipodi.sourceforge.net/DTD/sodipodi-0.dtd"
   xmlns="http://www.w3.org/2000/svg"
   xmlns:svg="http://www.w3.org/2000/svg">
  <defs
     id="defs1" />
  <sodipodi:namedview
     id="namedview1"
     pagecolor="#ffffff"
     bordercolor="#000000"
     borderopacity="0.25"
     inkscape:showpageshadow="2"
     inkscape:pageopacity="0.0"
     inkscape:pagecheckerboard="0"
     inkscape:deskcolor="#d1d1d1"
     inkscape:zoom="32.375"
     inkscape:cx="11.984556"
     inkscape:cy="11.969112"
     inkscape:window-width="1920"
     inkscape:window-height="991"
     inkscape:window-x="-9"
     inkscape:window-y="-9"
     inkscape:window-maximized="1"
     inkscape:current-layer="layer1" />
  <g
     inkscape:groupmode="layer"
     id="layer1"
     inkscape:label="Layer 1">
    <path
       d="m 885.33333,0 -336,-336 q -40,32 -92,50.66667 -52,18.66666 -110.66666,18.66666 -145.33334,0 -246,-100.66666 Q 0,-468 0,-613.33333 q 0,-145.33334 100.66667,-246 Q 201.33333,-960 346.66667,-960 q 145.33333,0 246,100.66667 100.66666,100.66666 100.66666,246 0,58.66666 -18.66666,110.66666 -18.66667,52 -50.66667,92 L 960,-74.666667 Z M 346.66667,-373.33333 q 100,0 170,-70 70,-70 70,-170 0,-100 -70,-170 -70,-70 -170,-70 -100,0 -170,70 -70,70 -70,170 0,100 70,170 70,70 170,70 z"
       id="path1"
       style="display:inline;fill:#000000;fill-opacity:0.29078;stroke-width:1.33333" />
  </g>
</svg>
